# xmcd
#
# Track frame offsets: 
#        150
#        27545
#        42857
#        76415
#        99347
#        118305
#        137912
#        153777
#
# Disc length: 2329 seconds
#
# Revision: 0
# Processed by: cddbd v1.5.2PL0 Copyright (c) Steve Scherf et al.
# Submitted via: ExactAudioCopy v0.99pb3
#
DISCID=62091708
DTITLE=Nappy Brown - Just For Me
DYEAR=1988
DGENRE=Blues
TTITLE0=Night Time
TTITLE1=Bye Bye Baby
TTITLE2=Things Have Changed
TTITLE3=Just For Me
TTITLE4=We Need To Love One Another
TTITLE5=What More Can I Say
TTITLE6=You Must Be Crazy
TTITLE7=Deep Sea Diver
EXTD=
EXTT0=
EXTT1=
EXTT2=
EXTT3=
EXTT4=
EXTT5=
EXTT6=
EXTT7=
PLAYORDER=
